<?xml version="1.0" encoding="UTF-8"?>
<svg id="Lager_1" xmlns="http://www.w3.org/2000/svg" version="1.1" viewBox="0 0 512 512">
  <!-- Generator: Adobe Illustrator 29.8.3, SVG Export Plug-In . SVG Version: 2.1.1 Build 3)  -->
  <g>
    <polygon points="156.19 53.88 247.57 107.37 247.52 268.12 354.67 268.12 354.73 107.37 270.12 53.88 156.19 53.88"/>
    <polygon points="12.37 107.24 103.75 160.73 103.48 268.12 210.63 268.12 210.9 160.73 126.29 107.24 12.37 107.24"/>
    <polygon points="415.02 .11 301.1 .11 392.48 53.59 391.67 268.12 498.82 268.12 499.63 53.59 415.02 .11"/>
  </g>
  <g>
    <path d="M12.37,435.64c0-21.26,16.15-29.85,35.37-33.93,27.39-5.93,33.12-6.95,33.12-13.9s-5.52-11.04-14.31-11.04c-7.97,0-15.74,3.89-19.22,15.95l-31.69-10.63c7.36-24.53,28.83-32.91,52.13-32.91,31.07,0,47.43,14.92,47.43,41.5v40.48c0,18.6,1.43,26.78,3.68,35.78h-33.94c-1.43-3.68-1.84-7.57-1.84-11.86h-.41c-5.72,9.81-18.4,15.34-31.07,15.34-19.63,0-39.25-11.24-39.25-34.76ZM81.06,424.81v-6.95c-5.72,1.64-17.58,4.5-20.65,5.32-7.36,2.04-10.63,6.13-10.63,11.45,0,6.95,5.52,9.81,12.27,9.81,11.86,0,19.01-9.2,19.01-19.63Z"/>
    <path d="M117.63,410.29c0-34.96,23.92-61.13,57.85-61.13,31.07,0,56.22,21.67,56.22,62.35v8.18h-80.14c3.07,13.7,14.31,20.03,26.17,20.03,8.59,0,17.38-4.09,21.87-14.31l32.1,13.08c-7.15,16.97-26.17,31.89-53.56,31.89-34.35,0-60.51-23.51-60.51-60.11ZM175.28,378.19c-12.06,0-19.21,7.98-22.08,19.01h44.36c-2.66-13.29-11.04-19.01-22.28-19.01Z"/>
    <path d="M235.15,303.37h34.35v88.52h.41c11.25-13.7,22.28-26.58,33.53-39.46h40.48c-14.11,15.74-28.21,31.69-42.32,47.43,15.54,22.28,31.07,44.77,46.61,67.05h-40.27c-9.41-14.31-18.6-28.42-28.01-42.73-3.48,3.89-6.95,7.77-10.43,11.65v31.07h-34.35v-163.55Z"/>
    <path d="M341.84,352.44h33.73v14.51h.41c10.22-12.67,20.85-17.78,34.35-17.78,31.48,0,48.86,27.6,48.86,59.9,0,39.05-25.14,61.33-51.52,61.33-16.15,0-26.17-8.18-31.69-15.54v57.04h-34.14v-159.46ZM424.02,409.88c0-16.35-10.01-28.01-24.33-28.01s-24.53,11.65-24.53,28.01,10.02,27.8,24.53,27.8,24.33-11.65,24.33-27.8Z"/>
    <path d="M459.56,318.91c0-10.63,8.59-19.63,20.24-19.63s19.83,9,19.83,19.63c0,11.45-8.58,20.44-19.83,20.44s-20.24-9-20.24-20.44ZM462.43,352.44h34.14v114.48h-34.14v-114.48Z"/>
  </g>
</svg>